<svg xmlns="http://www.w3.org/2000/svg" width="430" height="58" fill="none" viewBox="0 0 430 58"><rect width="143.54" height="4" x="1" y="54" fill="#C4C4C4" fill-opacity=".93"/><path stroke="#000" stroke-opacity=".2" d="M16.5 9.06727C16.362 10.0338 17.0335 10.9292 18 11.0673C19.2967 11.2525 19.5052 9.37712 19.5 8.06727C19.4934 6.38758 18.5544 5.20398 17 4.56727C14.736 3.63985 11.5 7.56727 11.5 7.56727V16.5674C11.5 16.5674 15.1193 22.4252 16.5 26.5674C17.8807 30.7095 18.5 37.5674 18.5 37.5674V45.5674C18.5 45.5674 17.8734 47.5912 17 48.5674C16.349 49.295 15 50.0674 15 50.0674H11.5L11.5 43.0675M11.5 43.0675C11.5 43.0675 12.9477 42.5152 13.5 43.0675C14.0523 43.6198 13.5 45.0675 13.5 45.0675M11.5 43.0675L11 16.5674M129.5 8.64173C129.638 9.60823 128.966 10.5037 128 10.6417C126.703 10.827 126.495 8.95158 126.5 7.64173C126.507 5.96204 127.446 4.77845 129 4.14173C131.264 3.21431 134.5 7.14173 134.5 7.14173V16.1418C134.5 16.1418 130.881 21.9997 129.5 26.1418C128.119 30.284 127.5 37.1418 127.5 37.1418V45.1418C127.5 45.1418 128.127 47.1657 129 48.1418C129.651 48.8694 131 49.6418 131 49.6418H134.5V42.6419M134.5 42.6419C134.5 42.6419 133.052 42.0897 132.5 42.6419C131.948 43.1942 132.5 44.6419 132.5 44.6419M134.5 42.6419L135 16.1418M93.5 8.78358C93.638 9.75008 92.9665 10.6455 92 10.7836C90.7033 10.9688 90.4948 9.09343 90.5 7.78358C90.5066 6.10388 91.4456 4.92029 93 4.28358C95.264 3.35616 98.5 7.28358 98.5 7.28358V16.2837C98.5 16.2837 94.8807 22.1416 93.5 26.2837C92.1193 30.4258 91.5 37.2837 91.5 37.2837V45.2837C91.5 45.2837 92.1266 47.3075 93 48.2837C93.651 49.0113 95 49.7837 95 49.7837H98.5L98.5 42.7838M98.5 42.7838C98.5 42.7838 97.0523 42.2315 96.5 42.7838C95.9477 43.3361 96.5 44.7838 96.5 44.7838M98.5 42.7838L99 16.2837M112 8.78358C112.138 9.75008 111.467 10.6455 110.5 10.7836C109.203 10.9688 108.995 9.09343 109 7.78358C109.007 6.10388 109.946 4.92029 111.5 4.28358C113.764 3.35616 117 7.28358 117 7.28358V16.2837C117 16.2837 113.381 22.1416 112 26.2837C110.619 30.4258 110 37.2837 110 37.2837V45.2837C110 45.2837 110.627 47.3075 111.5 48.2837C112.151 49.0113 113.5 49.7837 113.5 49.7837H117L117 42.7838M117 42.7838C117 42.7838 115.552 42.2315 115 42.7838C114.448 43.3361 115 44.7838 115 44.7838M117 42.7838L117.5 16.2837M76.0001 8.92543C76.1382 9.89192 75.4666 10.7874 74.5001 10.9254C73.2034 11.1107 72.9949 9.23527 73.0001 7.92543C73.0067 6.24573 73.9457 5.06214 75.5001 4.42543C77.7641 3.498 81.0001 7.42543 81.0001 7.42543V16.4255C81.0001 16.4255 77.3808 22.2834 76.0001 26.4255C74.6194 30.5677 74.0001 37.4255 74.0001 37.4255V45.4255C74.0001 45.4255 74.6267 47.4494 75.5001 48.4255C76.1511 49.1531 77.5001 49.9255 77.5001 49.9255H81.0001L81.0001 42.9256M81.0001 42.9256C81.0001 42.9256 79.5524 42.3734 79.0001 42.9256C78.4478 43.4779 79.0001 44.9256 79.0001 44.9256M81.0001 42.9256L81.5001 16.4255M141 8.64173C140.862 9.60823 141.533 10.5037 142.5 10.6417C143.797 10.827 144.005 8.95158 144 7.64173C143.993 5.96204 143.054 4.77845 141.5 4.14173C139.236 3.21431 136 7.14173 136 7.14173V16.1418C136 16.1418 139.619 21.9997 141 26.1418C142.381 30.284 143 37.1418 143 37.1418V45.1418C143 45.1418 142.373 47.1657 141.5 48.1418C140.849 48.8694 139.5 49.6418 139.5 49.6418H136V42.6419M136 42.6419C136 42.6419 137.448 42.0897 138 42.6419C138.552 43.1942 138 44.6419 138 44.6419M136 42.6419L135.5 16.1418M105 8.78358C104.862 9.75008 105.533 10.6455 106.5 10.7836C107.797 10.9688 108.005 9.09343 108 7.78358C107.993 6.10388 107.054 4.92029 105.5 4.28358C103.236 3.35616 99.9999 7.28358 99.9999 7.28358V16.2837C99.9999 16.2837 103.619 22.1416 105 26.2837C106.381 30.4258 107 37.2837 107 37.2837V45.2837C107 45.2837 106.373 47.3075 105.5 48.2837C104.849 49.0113 103.5 49.7837 103.5 49.7837H99.9999L99.9999 42.7838M99.9999 42.7838C99.9999 42.7838 101.448 42.2315 102 42.7838C102.552 43.3361 102 44.7838 102 44.7838M99.9999 42.7838L99.4999 16.2837M123.5 8.78358C123.362 9.75008 124.034 10.6455 125 10.7836C126.297 10.9688 126.505 9.09343 126.5 7.78358C126.493 6.10388 125.554 4.92029 124 4.28358C121.736 3.35616 118.5 7.28358 118.5 7.28358V16.2837C118.5 16.2837 122.119 22.1416 123.5 26.2837C124.881 30.4258 125.5 37.2837 125.5 37.2837V45.2837C125.5 45.2837 124.873 47.3075 124 48.2837C123.349 49.0113 122 49.7837 122 49.7837H118.5L118.5 42.7838M118.5 42.7838C118.5 42.7838 119.948 42.2315 120.5 42.7838C121.052 43.3361 120.5 44.7838 120.5 44.7838M118.5 42.7838L118 16.2837M87.5 8.92543C87.362 9.89192 88.0335 10.7874 89 10.9254C90.2967 11.1107 90.5052 9.23527 90.5 7.92543C90.4934 6.24573 89.5544 5.06214 88 4.42543C85.736 3.498 82.5 7.42543 82.5 7.42543V16.4255C82.5 16.4255 86.1193 22.2834 87.5 26.4255C88.8807 30.5677 89.5 37.4255 89.5 37.4255V45.4255C89.5 45.4255 88.8734 47.4494 88 48.4255C87.349 49.1531 86 49.9255 86 49.9255H82.5L82.5 42.9256M82.5 42.9256C82.5 42.9256 83.9477 42.3734 84.5 42.9256C85.0523 43.4779 84.5 44.9256 84.5 44.9256M82.5 42.9256L82 16.4255M58.5 8.78358C58.638 9.75008 57.9665 10.6455 57 10.7836C55.7033 10.9688 55.4948 9.09343 55.5 7.78358C55.5066 6.10388 56.4456 4.92029 58 4.28358C60.264 3.35616 63.5 7.28358 63.5 7.28358V16.2837C63.5 16.2837 59.8807 22.1416 58.5 26.2837C57.1193 30.4258 56.5 37.2837 56.5 37.2837V45.2837C56.5 45.2837 57.1266 47.3075 58 48.2837C58.651 49.0113 60 49.7837 60 49.7837H63.5L63.5 42.7838M63.5 42.7838C63.5 42.7838 62.0523 42.2315 61.5 42.7838C60.9477 43.3361 61.5 44.7838 61.5 44.7838M63.5 42.7838L64 16.2837M22.5 8.92543C22.638 9.89192 21.9665 10.7874 21 10.9254C19.7033 11.1107 19.4948 9.23527 19.5 7.92543C19.5066 6.24573 20.4456 5.06214 22 4.42543C24.264 3.498 27.5 7.42543 27.5 7.42543V16.4255C27.5 16.4255 23.8807 22.2834 22.5 26.4255C21.1193 30.5677 20.5 37.4255 20.5 37.4255V45.4255C20.5 45.4255 21.1266 47.4494 22 48.4255C22.651 49.1531 24 49.9255 24 49.9255H27.5L27.5 42.9256M27.5 42.9256C27.5 42.9256 26.0523 42.3734 25.5 42.9256C24.9477 43.4779 25.5 44.9256 25.5 44.9256M27.5 42.9256L28 16.4255M41.0001 8.92543C41.1382 9.89192 40.4666 10.7874 39.5001 10.9254C38.2034 11.1107 37.9949 9.23527 38.0001 7.92543C38.0067 6.24573 38.9457 5.06214 40.5001 4.42543C42.7641 3.498 46.0001 7.42543 46.0001 7.42543V16.4255C46.0001 16.4255 42.3808 22.2834 41.0001 26.4255C39.6194 30.5677 39.0001 37.4255 39.0001 37.4255V45.4255C39.0001 45.4255 39.6267 47.4494 40.5001 48.4255C41.1511 49.1531 42.5001 49.9255 42.5001 49.9255H46.0001L46.0001 42.9256M46.0001 42.9256C46.0001 42.9256 44.5524 42.3734 44.0001 42.9256C43.4478 43.4779 44.0001 44.9256 44.0001 44.9256M46.0001 42.9256L46.5001 16.4255M5.00009 9.06727C5.13816 10.0338 4.46659 10.9292 3.50009 11.0673C2.2034 11.2525 1.99492 9.37712 2.00009 8.06727C2.00673 6.38758 2.94574 5.20398 4.50009 4.56727C6.76413 3.63985 10.0001 7.56727 10.0001 7.56727V16.5674C10.0001 16.5674 6.3808 22.4252 5.00009 26.5674C3.61939 30.7095 3.00012 37.5674 3.00012 37.5674V45.5674C3.00012 45.5674 3.62669 47.5912 4.50009 48.5674C5.1511 49.295 6.50012 50.0674 6.50012 50.0674H10.0001L10.0001 43.0675M10.0001 43.0675C10.0001 43.0675 8.55238 42.5152 8.0001 43.0675C7.44781 43.6198 8.0001 45.0675 8.0001 45.0675M10.0001 43.0675L10.5001 16.5674M69.9999 8.78358C69.8618 9.75008 70.5334 10.6455 71.4999 10.7836C72.7966 10.9688 73.0051 9.09343 72.9999 7.78358C72.9933 6.10388 72.0543 4.92029 70.4999 4.28358C68.2359 3.35616 64.9999 7.28358 64.9999 7.28358V16.2837C64.9999 16.2837 68.6192 22.1416 69.9999 26.2837C71.3806 30.4258 71.9999 37.2837 71.9999 37.2837V45.2837C71.9999 45.2837 71.3733 47.3075 70.4999 48.2837C69.8489 49.0113 68.4999 49.7837 68.4999 49.7837H64.9999L64.9999 42.7838M64.9999 42.7838C64.9999 42.7838 66.4476 42.2315 66.9999 42.7838C67.5522 43.3361 66.9999 44.7838 66.9999 44.7838M64.9999 42.7838L64.4999 16.2837M33.9999 8.92543C33.8618 9.89192 34.5334 10.7874 35.4999 10.9254C36.7966 11.1107 37.0051 9.23527 36.9999 7.92543C36.9933 6.24573 36.0543 5.06214 34.4999 4.42543C32.2359 3.498 28.9999 7.42543 28.9999 7.42543V16.4255C28.9999 16.4255 32.6192 22.2834 33.9999 26.4255C35.3806 30.5677 35.9999 37.4255 35.9999 37.4255V45.4255C35.9999 45.4255 35.3733 47.4494 34.4999 48.4255C33.8489 49.1531 32.4999 49.9255 32.4999 49.9255H28.9999L28.9999 42.9256M28.9999 42.9256C28.9999 42.9256 30.4476 42.3734 30.9999 42.9256C31.5522 43.4779 30.9999 44.9256 30.9999 44.9256M28.9999 42.9256L28.4999 16.4255M52.5 8.92543C52.362 9.89192 53.0335 10.7874 54 10.9254C55.2967 11.1107 55.5052 9.23527 55.5 7.92543C55.4934 6.24573 54.5544 5.06214 53 4.42543C50.736 3.498 47.5 7.42543 47.5 7.42543V16.4255C47.5 16.4255 51.1193 22.2834 52.5 26.4255C53.8807 30.5677 54.5 37.4255 54.5 37.4255V45.4255C54.5 45.4255 53.8734 47.4494 53 48.4255C52.349 49.1531 51 49.9255 51 49.9255H47.5L47.5 42.9256M47.5 42.9256C47.5 42.9256 48.9477 42.3734 49.5 42.9256C50.0523 43.4779 49.5 44.9256 49.5 44.9256M47.5 42.9256L47 16.4255M10.25 2H11.25V53H10.25V2ZM28 2H29V53H28V2ZM46 2H47V53H46V2ZM64 2H65V53H64V2ZM81 2H82V53H81V2ZM99 2H100V53H99V2ZM117 2H118V53H117V2ZM135 2H136V53H135V2ZM1 1H144V2H1V1ZM1 53H144V54H1V53Z"/><rect width="143.54" height="4" x="143" y="54" fill="#C4C4C4" fill-opacity=".93"/><path stroke="#000" stroke-opacity=".2" d="M158.5 9.06727C158.362 10.0338 159.034 10.9292 160 11.0673C161.297 11.2525 161.505 9.37712 161.5 8.06727C161.493 6.38758 160.554 5.20398 159 4.56727C156.736 3.63985 153.5 7.56727 153.5 7.56727V16.5674C153.5 16.5674 157.119 22.4252 158.5 26.5674C159.881 30.7095 160.5 37.5674 160.5 37.5674V45.5674C160.5 45.5674 159.873 47.5912 159 48.5674C158.349 49.295 157 50.0674 157 50.0674H153.5L153.5 43.0675M153.5 43.0675C153.5 43.0675 154.948 42.5152 155.5 43.0675C156.052 43.6198 155.5 45.0675 155.5 45.0675M153.5 43.0675L153 16.5674M271.5 8.64173C271.638 9.60823 270.966 10.5037 270 10.6417C268.703 10.827 268.495 8.95158 268.5 7.64173C268.507 5.96204 269.446 4.77845 271 4.14173C273.264 3.21431 276.5 7.14173 276.5 7.14173V16.1418C276.5 16.1418 272.881 21.9997 271.5 26.1418C270.119 30.284 269.5 37.1418 269.5 37.1418V45.1418C269.5 45.1418 270.127 47.1657 271 48.1418C271.651 48.8694 273 49.6418 273 49.6418H276.5V42.6419M276.5 42.6419C276.5 42.6419 275.052 42.0897 274.5 42.6419C273.948 43.1942 274.5 44.6419 274.5 44.6419M276.5 42.6419L277 16.1418M235.5 8.78358C235.638 9.75008 234.966 10.6455 234 10.7836C232.703 10.9688 232.495 9.09343 232.5 7.78358C232.507 6.10388 233.446 4.92029 235 4.28358C237.264 3.35616 240.5 7.28358 240.5 7.28358V16.2837C240.5 16.2837 236.881 22.1416 235.5 26.2837C234.119 30.4258 233.5 37.2837 233.5 37.2837V45.2837C233.5 45.2837 234.127 47.3075 235 48.2837C235.651 49.0113 237 49.7837 237 49.7837H240.5L240.5 42.7838M240.5 42.7838C240.5 42.7838 239.052 42.2315 238.5 42.7838C237.948 43.3361 238.5 44.7838 238.5 44.7838M240.5 42.7838L241 16.2837M254 8.78358C254.138 9.75008 253.467 10.6455 252.5 10.7836C251.203 10.9688 250.995 9.09343 251 7.78358C251.007 6.10388 251.946 4.92029 253.5 4.28358C255.764 3.35616 259 7.28358 259 7.28358V16.2837C259 16.2837 255.381 22.1416 254 26.2837C252.619 30.4258 252 37.2837 252 37.2837V45.2837C252 45.2837 252.627 47.3075 253.5 48.2837C254.151 49.0113 255.5 49.7837 255.5 49.7837H259L259 42.7838M259 42.7838C259 42.7838 257.552 42.2315 257 42.7838C256.448 43.3361 257 44.7838 257 44.7838M259 42.7838L259.5 16.2837M218 8.92543C218.138 9.89192 217.467 10.7874 216.5 10.9254C215.203 11.1107 214.995 9.23527 215 7.92543C215.007 6.24573 215.946 5.06214 217.5 4.42543C219.764 3.498 223 7.42543 223 7.42543V16.4255C223 16.4255 219.381 22.2834 218 26.4255C216.619 30.5677 216 37.4255 216 37.4255V45.4255C216 45.4255 216.627 47.4494 217.5 48.4255C218.151 49.1531 219.5 49.9255 219.5 49.9255H223L223 42.9256M223 42.9256C223 42.9256 221.552 42.3734 221 42.9256C220.448 43.4779 221 44.9256 221 44.9256M223 42.9256L223.5 16.4255M283 8.64173C282.862 9.60823 283.533 10.5037 284.5 10.6417C285.797 10.827 286.005 8.95158 286 7.64173C285.993 5.96204 285.054 4.77845 283.5 4.14173C281.236 3.21431 278 7.14173 278 7.14173V16.1418C278 16.1418 281.619 21.9997 283 26.1418C284.381 30.284 285 37.1418 285 37.1418V45.1418C285 45.1418 284.373 47.1657 283.5 48.1418C282.849 48.8694 281.5 49.6418 281.5 49.6418H278V42.6419M278 42.6419C278 42.6419 279.448 42.0897 280 42.6419C280.552 43.1942 280 44.6419 280 44.6419M278 42.6419L277.5 16.1418M247 8.78358C246.862 9.75008 247.533 10.6455 248.5 10.7836C249.797 10.9688 250.005 9.09343 250 7.78358C249.993 6.10388 249.054 4.92029 247.5 4.28358C245.236 3.35616 242 7.28358 242 7.28358V16.2837C242 16.2837 245.619 22.1416 247 26.2837C248.381 30.4258 249 37.2837 249 37.2837V45.2837C249 45.2837 248.373 47.3075 247.5 48.2837C246.849 49.0113 245.5 49.7837 245.5 49.7837H242L242 42.7838M242 42.7838C242 42.7838 243.448 42.2315 244 42.7838C244.552 43.3361 244 44.7838 244 44.7838M242 42.7838L241.5 16.2837M265.5 8.78358C265.362 9.75008 266.034 10.6455 267 10.7836C268.297 10.9688 268.505 9.09343 268.5 7.78358C268.493 6.10388 267.554 4.92029 266 4.28358C263.736 3.35616 260.5 7.28358 260.5 7.28358V16.2837C260.5 16.2837 264.119 22.1416 265.5 26.2837C266.881 30.4258 267.5 37.2837 267.5 37.2837V45.2837C267.5 45.2837 266.873 47.3075 266 48.2837C265.349 49.0113 264 49.7837 264 49.7837H260.5L260.5 42.7838M260.5 42.7838C260.5 42.7838 261.948 42.2315 262.5 42.7838C263.052 43.3361 262.5 44.7838 262.5 44.7838M260.5 42.7838L260 16.2837M229.5 8.92543C229.362 9.89192 230.034 10.7874 231 10.9254C232.297 11.1107 232.505 9.23527 232.5 7.92543C232.493 6.24573 231.554 5.06214 230 4.42543C227.736 3.498 224.5 7.42543 224.5 7.42543V16.4255C224.5 16.4255 228.119 22.2834 229.5 26.4255C230.881 30.5677 231.5 37.4255 231.5 37.4255V45.4255C231.5 45.4255 230.873 47.4494 230 48.4255C229.349 49.1531 228 49.9255 228 49.9255H224.5L224.5 42.9256M224.5 42.9256C224.5 42.9256 225.948 42.3734 226.5 42.9256C227.052 43.4779 226.5 44.9256 226.5 44.9256M224.5 42.9256L224 16.4255M200.5 8.78358C200.638 9.75008 199.966 10.6455 199 10.7836C197.703 10.9688 197.495 9.09343 197.5 7.78358C197.507 6.10388 198.446 4.92029 200 4.28358C202.264 3.35616 205.5 7.28358 205.5 7.28358V16.2837C205.5 16.2837 201.881 22.1416 200.5 26.2837C199.119 30.4258 198.5 37.2837 198.5 37.2837V45.2837C198.5 45.2837 199.127 47.3075 200 48.2837C200.651 49.0113 202 49.7837 202 49.7837H205.5L205.5 42.7838M205.5 42.7838C205.5 42.7838 204.052 42.2315 203.5 42.7838C202.948 43.3361 203.5 44.7838 203.5 44.7838M205.5 42.7838L206 16.2837M164.5 8.92543C164.638 9.89192 163.966 10.7874 163 10.9254C161.703 11.1107 161.495 9.23527 161.5 7.92543C161.507 6.24573 162.446 5.06214 164 4.42543C166.264 3.498 169.5 7.42543 169.5 7.42543V16.4255C169.5 16.4255 165.881 22.2834 164.5 26.4255C163.119 30.5677 162.5 37.4255 162.5 37.4255V45.4255C162.5 45.4255 163.127 47.4494 164 48.4255C164.651 49.1531 166 49.9255 166 49.9255H169.5L169.5 42.9256M169.5 42.9256C169.5 42.9256 168.052 42.3734 167.5 42.9256C166.948 43.4779 167.5 44.9256 167.5 44.9256M169.5 42.9256L170 16.4255M183 8.92543C183.138 9.89192 182.467 10.7874 181.5 10.9254C180.203 11.1107 179.995 9.23527 180 7.92543C180.007 6.24573 180.946 5.06214 182.5 4.42543C184.764 3.498 188 7.42543 188 7.42543V16.4255C188 16.4255 184.381 22.2834 183 26.4255C181.619 30.5677 181 37.4255 181 37.4255V45.4255C181 45.4255 181.627 47.4494 182.5 48.4255C183.151 49.1531 184.5 49.9255 184.5 49.9255H188L188 42.9256M188 42.9256C188 42.9256 186.552 42.3734 186 42.9256C185.448 43.4779 186 44.9256 186 44.9256M188 42.9256L188.5 16.4255M147 9.06727C147.138 10.0338 146.467 10.9292 145.5 11.0673C144.203 11.2525 143.995 9.37712 144 8.06727C144.007 6.38758 144.946 5.20398 146.5 4.56727C148.764 3.63985 152 7.56727 152 7.56727V16.5674C152 16.5674 148.381 22.4252 147 26.5674C145.619 30.7095 145 37.5674 145 37.5674V45.5674C145 45.5674 145.627 47.5912 146.5 48.5674C147.151 49.295 148.5 50.0674 148.5 50.0674H152L152 43.0675M152 43.0675C152 43.0675 150.552 42.5152 150 43.0675C149.448 43.6198 150 45.0675 150 45.0675M152 43.0675L152.5 16.5674M212 8.78358C211.862 9.75008 212.533 10.6455 213.5 10.7836C214.797 10.9688 215.005 9.09343 215 7.78358C214.993 6.10388 214.054 4.92029 212.5 4.28358C210.236 3.35616 207 7.28358 207 7.28358V16.2837C207 16.2837 210.619 22.1416 212 26.2837C213.381 30.4258 214 37.2837 214 37.2837V45.2837C214 45.2837 213.373 47.3075 212.5 48.2837C211.849 49.0113 210.5 49.7837 210.5 49.7837H207L207 42.7838M207 42.7838C207 42.7838 208.448 42.2315 209 42.7838C209.552 43.3361 209 44.7838 209 44.7838M207 42.7838L206.5 16.2837M176 8.92543C175.862 9.89192 176.533 10.7874 177.5 10.9254C178.797 11.1107 179.005 9.23527 179 7.92543C178.993 6.24573 178.054 5.06214 176.5 4.42543C174.236 3.498 171 7.42543 171 7.42543V16.4255C171 16.4255 174.619 22.2834 176 26.4255C177.381 30.5677 178 37.4255 178 37.4255V45.4255C178 45.4255 177.373 47.4494 176.5 48.4255C175.849 49.1531 174.5 49.9255 174.5 49.9255H171L171 42.9256M171 42.9256C171 42.9256 172.448 42.3734 173 42.9256C173.552 43.4779 173 44.9256 173 44.9256M171 42.9256L170.5 16.4255M194.5 8.92543C194.362 9.89192 195.034 10.7874 196 10.9254C197.297 11.1107 197.505 9.23527 197.5 7.92543C197.493 6.24573 196.554 5.06214 195 4.42543C192.736 3.498 189.5 7.42543 189.5 7.42543V16.4255C189.5 16.4255 193.119 22.2834 194.5 26.4255C195.881 30.5677 196.5 37.4255 196.5 37.4255V45.4255C196.5 45.4255 195.873 47.4494 195 48.4255C194.349 49.1531 193 49.9255 193 49.9255H189.5L189.5 42.9256M189.5 42.9256C189.5 42.9256 190.948 42.3734 191.5 42.9256C192.052 43.4779 191.5 44.9256 191.5 44.9256M189.5 42.9256L189 16.4255M152.25 2H153.25V53H152.25V2ZM170 2H171V53H170V2ZM188 2H189V53H188V2ZM206 2H207V53H206V2ZM223 2H224V53H223V2ZM241 2H242V53H241V2ZM259 2H260V53H259V2ZM277 2H278V53H277V2ZM143 1H286V2H143V1ZM143 53H286V54H143V53Z"/><rect width="143.54" height="4" x="286" y="54" fill="#C4C4C4" fill-opacity=".93"/><path stroke="#000" stroke-opacity=".2" d="M301.5 9.06727C301.362 10.0338 302.034 10.9292 303 11.0673C304.297 11.2525 304.505 9.37712 304.5 8.06727C304.493 6.38758 303.554 5.20398 302 4.56727C299.736 3.63985 296.5 7.56727 296.5 7.56727V16.5674C296.5 16.5674 300.119 22.4252 301.5 26.5674C302.881 30.7095 303.5 37.5674 303.5 37.5674V45.5674C303.5 45.5674 302.873 47.5912 302 48.5674C301.349 49.295 300 50.0674 300 50.0674H296.5L296.5 43.0675M296.5 43.0675C296.5 43.0675 297.948 42.5152 298.5 43.0675C299.052 43.6198 298.5 45.0675 298.5 45.0675M296.5 43.0675L296 16.5674M414.5 8.64173C414.638 9.60823 413.966 10.5037 413 10.6417C411.703 10.827 411.495 8.95158 411.5 7.64173C411.507 5.96204 412.446 4.77845 414 4.14173C416.264 3.21431 419.5 7.14173 419.5 7.14173V16.1418C419.5 16.1418 415.881 21.9997 414.5 26.1418C413.119 30.284 412.5 37.1418 412.5 37.1418V45.1418C412.5 45.1418 413.127 47.1657 414 48.1418C414.651 48.8694 416 49.6418 416 49.6418H419.5V42.6419M419.5 42.6419C419.5 42.6419 418.052 42.0897 417.5 42.6419C416.948 43.1942 417.5 44.6419 417.5 44.6419M419.5 42.6419L420 16.1418M378.5 8.78358C378.638 9.75008 377.966 10.6455 377 10.7836C375.703 10.9688 375.495 9.09343 375.5 7.78358C375.507 6.10388 376.446 4.92029 378 4.28358C380.264 3.35616 383.5 7.28358 383.5 7.28358V16.2837C383.5 16.2837 379.881 22.1416 378.5 26.2837C377.119 30.4258 376.5 37.2837 376.5 37.2837V45.2837C376.5 45.2837 377.127 47.3075 378 48.2837C378.651 49.0113 380 49.7837 380 49.7837H383.5L383.5 42.7838M383.5 42.7838C383.5 42.7838 382.052 42.2315 381.5 42.7838C380.948 43.3361 381.5 44.7838 381.5 44.7838M383.5 42.7838L384 16.2837M397 8.78358C397.138 9.75008 396.467 10.6455 395.5 10.7836C394.203 10.9688 393.995 9.09343 394 7.78358C394.007 6.10388 394.946 4.92029 396.5 4.28358C398.764 3.35616 402 7.28358 402 7.28358V16.2837C402 16.2837 398.381 22.1416 397 26.2837C395.619 30.4258 395 37.2837 395 37.2837V45.2837C395 45.2837 395.627 47.3075 396.5 48.2837C397.151 49.0113 398.5 49.7837 398.5 49.7837H402L402 42.7838M402 42.7838C402 42.7838 400.552 42.2315 400 42.7838C399.448 43.3361 400 44.7838 400 44.7838M402 42.7838L402.5 16.2837M361 8.92543C361.138 9.89192 360.467 10.7874 359.5 10.9254C358.203 11.1107 357.995 9.23527 358 7.92543C358.007 6.24573 358.946 5.06214 360.5 4.42543C362.764 3.498 366 7.42543 366 7.42543V16.4255C366 16.4255 362.381 22.2834 361 26.4255C359.619 30.5677 359 37.4255 359 37.4255V45.4255C359 45.4255 359.627 47.4494 360.5 48.4255C361.151 49.1531 362.5 49.9255 362.5 49.9255H366L366 42.9256M366 42.9256C366 42.9256 364.552 42.3734 364 42.9256C363.448 43.4779 364 44.9256 364 44.9256M366 42.9256L366.5 16.4255M426 8.64173C425.862 9.60823 426.533 10.5037 427.5 10.6417C428.797 10.827 429.005 8.95158 429 7.64173C428.993 5.96204 428.054 4.77845 426.5 4.14173C424.236 3.21431 421 7.14173 421 7.14173V16.1418C421 16.1418 424.619 21.9997 426 26.1418C427.381 30.284 428 37.1418 428 37.1418V45.1418C428 45.1418 427.373 47.1657 426.5 48.1418C425.849 48.8694 424.5 49.6418 424.5 49.6418H421V42.6419M421 42.6419C421 42.6419 422.448 42.0897 423 42.6419C423.552 43.1942 423 44.6419 423 44.6419M421 42.6419L420.5 16.1418M390 8.78358C389.862 9.75008 390.533 10.6455 391.5 10.7836C392.797 10.9688 393.005 9.09343 393 7.78358C392.993 6.10388 392.054 4.92029 390.5 4.28358C388.236 3.35616 385 7.28358 385 7.28358V16.2837C385 16.2837 388.619 22.1416 390 26.2837C391.381 30.4258 392 37.2837 392 37.2837V45.2837C392 45.2837 391.373 47.3075 390.5 48.2837C389.849 49.0113 388.5 49.7837 388.5 49.7837H385L385 42.7838M385 42.7838C385 42.7838 386.448 42.2315 387 42.7838C387.552 43.3361 387 44.7838 387 44.7838M385 42.7838L384.5 16.2837M408.5 8.78358C408.362 9.75008 409.034 10.6455 410 10.7836C411.297 10.9688 411.505 9.09343 411.5 7.78358C411.493 6.10388 410.554 4.92029 409 4.28358C406.736 3.35616 403.5 7.28358 403.5 7.28358V16.2837C403.5 16.2837 407.119 22.1416 408.5 26.2837C409.881 30.4258 410.5 37.2837 410.5 37.2837V45.2837C410.5 45.2837 409.873 47.3075 409 48.2837C408.349 49.0113 407 49.7837 407 49.7837H403.5L403.5 42.7838M403.5 42.7838C403.5 42.7838 404.948 42.2315 405.5 42.7838C406.052 43.3361 405.5 44.7838 405.5 44.7838M403.5 42.7838L403 16.2837M372.5 8.92543C372.362 9.89192 373.034 10.7874 374 10.9254C375.297 11.1107 375.505 9.23527 375.5 7.92543C375.493 6.24573 374.554 5.06214 373 4.42543C370.736 3.498 367.5 7.42543 367.5 7.42543V16.4255C367.5 16.4255 371.119 22.2834 372.5 26.4255C373.881 30.5677 374.5 37.4255 374.5 37.4255V45.4255C374.5 45.4255 373.873 47.4494 373 48.4255C372.349 49.1531 371 49.9255 371 49.9255H367.5L367.5 42.9256M367.5 42.9256C367.5 42.9256 368.948 42.3734 369.5 42.9256C370.052 43.4779 369.5 44.9256 369.5 44.9256M367.5 42.9256L367 16.4255M343.5 8.78358C343.638 9.75008 342.966 10.6455 342 10.7836C340.703 10.9688 340.495 9.09343 340.5 7.78358C340.507 6.10388 341.446 4.92029 343 4.28358C345.264 3.35616 348.5 7.28358 348.5 7.28358V16.2837C348.5 16.2837 344.881 22.1416 343.5 26.2837C342.119 30.4258 341.5 37.2837 341.5 37.2837V45.2837C341.5 45.2837 342.127 47.3075 343 48.2837C343.651 49.0113 345 49.7837 345 49.7837H348.5L348.5 42.7838M348.5 42.7838C348.5 42.7838 347.052 42.2315 346.5 42.7838C345.948 43.3361 346.5 44.7838 346.5 44.7838M348.5 42.7838L349 16.2837M307.5 8.92543C307.638 9.89192 306.966 10.7874 306 10.9254C304.703 11.1107 304.495 9.23527 304.5 7.92543C304.507 6.24573 305.446 5.06214 307 4.42543C309.264 3.498 312.5 7.42543 312.5 7.42543V16.4255C312.5 16.4255 308.881 22.2834 307.5 26.4255C306.119 30.5677 305.5 37.4255 305.5 37.4255V45.4255C305.5 45.4255 306.127 47.4494 307 48.4255C307.651 49.1531 309 49.9255 309 49.9255H312.5L312.5 42.9256M312.5 42.9256C312.5 42.9256 311.052 42.3734 310.5 42.9256C309.948 43.4779 310.5 44.9256 310.5 44.9256M312.5 42.9256L313 16.4255M326 8.92543C326.138 9.89192 325.467 10.7874 324.5 10.9254C323.203 11.1107 322.995 9.23527 323 7.92543C323.007 6.24573 323.946 5.06214 325.5 4.42543C327.764 3.498 331 7.42543 331 7.42543V16.4255C331 16.4255 327.381 22.2834 326 26.4255C324.619 30.5677 324 37.4255 324 37.4255V45.4255C324 45.4255 324.627 47.4494 325.5 48.4255C326.151 49.1531 327.5 49.9255 327.5 49.9255H331L331 42.9256M331 42.9256C331 42.9256 329.552 42.3734 329 42.9256C328.448 43.4779 329 44.9256 329 44.9256M331 42.9256L331.5 16.4255M290 9.06727C290.138 10.0338 289.467 10.9292 288.5 11.0673C287.203 11.2525 286.995 9.37712 287 8.06727C287.007 6.38758 287.946 5.20398 289.5 4.56727C291.764 3.63985 295 7.56727 295 7.56727V16.5674C295 16.5674 291.381 22.4252 290 26.5674C288.619 30.7095 288 37.5674 288 37.5674V45.5674C288 45.5674 288.627 47.5912 289.5 48.5674C290.151 49.295 291.5 50.0674 291.5 50.0674H295L295 43.0675M295 43.0675C295 43.0675 293.552 42.5152 293 43.0675C292.448 43.6198 293 45.0675 293 45.0675M295 43.0675L295.5 16.5674M355 8.78358C354.862 9.75008 355.533 10.6455 356.5 10.7836C357.797 10.9688 358.005 9.09343 358 7.78358C357.993 6.10388 357.054 4.92029 355.5 4.28358C353.236 3.35616 350 7.28358 350 7.28358V16.2837C350 16.2837 353.619 22.1416 355 26.2837C356.381 30.4258 357 37.2837 357 37.2837V45.2837C357 45.2837 356.373 47.3075 355.5 48.2837C354.849 49.0113 353.5 49.7837 353.5 49.7837H350L350 42.7838M350 42.7838C350 42.7838 351.448 42.2315 352 42.7838C352.552 43.3361 352 44.7838 352 44.7838M350 42.7838L349.5 16.2837M319 8.92543C318.862 9.89192 319.533 10.7874 320.5 10.9254C321.797 11.1107 322.005 9.23527 322 7.92543C321.993 6.24573 321.054 5.06214 319.5 4.42543C317.236 3.498 314 7.42543 314 7.42543V16.4255C314 16.4255 317.619 22.2834 319 26.4255C320.381 30.5677 321 37.4255 321 37.4255V45.4255C321 45.4255 320.373 47.4494 319.5 48.4255C318.849 49.1531 317.5 49.9255 317.5 49.9255H314L314 42.9256M314 42.9256C314 42.9256 315.448 42.3734 316 42.9256C316.552 43.4779 316 44.9256 316 44.9256M314 42.9256L313.5 16.4255M337.5 8.92543C337.362 9.89192 338.034 10.7874 339 10.9254C340.297 11.1107 340.505 9.23527 340.5 7.92543C340.493 6.24573 339.554 5.06214 338 4.42543C335.736 3.498 332.5 7.42543 332.5 7.42543V16.4255C332.5 16.4255 336.119 22.2834 337.5 26.4255C338.881 30.5677 339.5 37.4255 339.5 37.4255V45.4255C339.5 45.4255 338.873 47.4494 338 48.4255C337.349 49.1531 336 49.9255 336 49.9255H332.5L332.5 42.9256M332.5 42.9256C332.5 42.9256 333.948 42.3734 334.5 42.9256C335.052 43.4779 334.5 44.9256 334.5 44.9256M332.5 42.9256L332 16.4255M295.25 2H296.25V53H295.25V2ZM313 2H314V53H313V2ZM331 2H332V53H331V2ZM349 2H350V53H349V2ZM366 2H367V53H366V2ZM384 2H385V53H384V2ZM402 2H403V53H402V2ZM420 2H421V53H420V2ZM286 1H429V2H286V1ZM286 53H429V54H286V53Z"/></svg>