<svg xmlns="http://www.w3.org/2000/svg" width="365" height="365" fill="none" viewBox="0 0 365 365"><path fill="#E5E5E5" d="M42 0.000108947H63V177H42V0.000108947Z"/><path fill="#E5E5E5" d="M84 0.000108947H105V168.5L84 190V0.000108947Z"/><path fill="#E5E5E5" d="M0 0.000108947H21V63.0001H0V0.000108947Z"/><path fill="#E5E5E5" d="M9 21.0001V0.000108947H63V21.0001H9Z"/><path fill="#E5E5E5" d="M4 63.0001V42.0001H178V63.0001H4Z"/><path fill="#E5E5E5" d="M210 63.0001V42.0001H302V63.0001H210Z"/><path fill="#E5E5E5" d="M210 21.0001V0.000108947H365L343.5 21.0001H210Z"/><path fill="#E5E5E5" d="M105 21.0001V0.000108947H177L167.013 21.0001H105Z"/><path fill="#E5E5E5" d="M0 105V84.0001H190L168.5 105H0Z"/><path fill="#E5E5E5" d="M0 105H21V177H0V105Z"/><path fill="#E5E5E5" d="M155.918 88.0777L170.742 102.953L103.768 169.697L88.9439 154.822L155.918 88.0777Z"/><path fill="#E5E5E5" d="M0 209H21V343.865L0 365V209Z"/><path fill="#E5E5E5" d="M42 210H63V302.503L42 323V210Z"/><path fill="#E5E5E5" d="M0 209.284L47.7907 161.494L63.4069 177.11L15.6162 224.901L0 209.284Z"/><path fill="#E5E5E5" d="M162 47.7909L209.791 0.000228501L225.407 15.6165L177.616 63.4071L162 47.7909Z"/><path fill="#E5E5E5" d="M0 333.791L47.7907 286L63.4069 301.616L15.6162 349.407L0 333.791Z"/><path fill="#E5E5E5" d="M286 47.7909L333.791 0.000228501L349.407 15.6165L301.616 63.4071L286 47.7909Z"/><path fill="#E5E5E5" d="M47.7908 225.407L0.000119555 177.616L15.5607 162.056L63.3513 209.847L47.7908 225.407Z"/><path fill="#E5E5E5" d="M209.791 63.3512L162 15.5605L177.561 0L225.351 47.7907L209.791 63.3512Z"/></svg>